<svg version="1.1" xmlns="http://www.w3.org/2000/svg" viewBox="-4395.774318712541 -2162.560122680664 12551.934691637345 3828.4802307128907"><desc>Created with Snap</desc><defs></defs><g><rect x="-4395.774318712541" y="-2162.560122680664" width="12551.934691637345" height="3828.4802307128907" fill="transparent" style=""></rect><g transform="matrix(49.0699,0,0,49.0699,-4088.5743,-1855.3601)"><g><path d="M78,0H46.6v38.1h14.5v21.2H22.4v-6.9h16.7V4.9H0v47.5h16.3v10c0,1.7,1.5,3.1,3.2,3.1h44.9c1.7,0,3.1-1.4,3.1-3.1V38.1H78V0   z M6.3,11.2h26.5v35.1H6.3V11.2z M71.9,31.8h-19V6.3h19V31.8z" fill="#e0aaff" style=""></path><rect x="19.3" y="15.3" width="7.9" height="6.1" fill="#e0aaff" style=""></rect><rect x="60.3" y="10.8" width="7.9" height="6.1" fill="#e0aaff" style=""></rect><rect x="11.6" y="24" width="15.7" height="6.1" fill="#e0aaff" style=""></rect><rect x="11.6" y="32.8" width="15.7" height="6.1" fill="#e0aaff" style=""></rect></g><desc>Created with Snap</desc><defs></defs></g><g><g transform="matrix(1.024,0,0,-1.024,0,0)"><path d="M308 -5Q250 -5 177 5Q137 10 122 26Q107 42 109 78Q116 177 142 322Q168 468 205 603Q212 628 233 638Q254 648 288 648Q349 648 349 614Q349 600 343 582Q317 502 291 367Q265 233 254 111Q284 108 322 108Q497 108 583 214Q670 320 670 497Q670 616 602 681Q534 746 410 746Q330 746 251 721Q173 696 110 655Q97 646 82 646Q65 646 55 660Q45 675 45 696Q45 720 53 735Q61 751 80 764Q149 811 242 835Q335 860 421 860Q543 860 632 817Q721 775 769 693Q817 611 817 495Q817 344 757 231Q697 119 582 57Q467 -5 308 -5ZM1007 -5Q945 -5 908 40Q871 85 871 158Q871 238 908 309Q945 381 1006 424Q1068 468 1137 468Q1159 468 1166 459Q1174 451 1179 429Q1200 433 1223 433Q1272 433 1272 398Q1272 377 1257 298Q1234 183 1234 138Q1234 123 1241 114Q1249 105 1261 105Q1280 105 1307 129Q1334 154 1380 209Q1392 223 1407 223Q1420 223 1427 211Q1435 199 1435 178Q1435 138 1416 116Q1375 65 1329 30Q1283 -5 1240 -5Q1207 -5 1179 17Q1152 40 1138 79Q1086 -5 1007 -5ZM1043 96Q1065 96 1085 122Q1105 148 1114 191L1151 375Q1109 374 1073 343Q1038 313 1017 263Q996 213 996 157Q996 126 1008 111Q1021 96 1043 96ZM1485 532Q1443 532 1422 551Q1401 571 1401 606Q1401 641 1428 664Q1456 688 1497 688Q1534 688 1557 670Q1580 652 1580 619Q1580 579 1554 555Q1528 532 1485 532ZM1477 -5Q1412 -5 1382 41Q1353 87 1353 163Q1353 208 1364 278Q1376 349 1394 410Q1403 442 1418 454Q1433 466 1466 466Q1517 466 1517 432Q1517 407 1498 316Q1474 206 1474 167Q1474 137 1482 121Q1490 105 1509 105Q1527 105 1554 130Q1581 155 1626 209Q1638 223 1653 223Q1666 223 1673 211Q1681 199 1681 178Q1681 138 1662 116Q1563 -5 1477 -5ZM1979 223Q1992 223 1999 211Q2007 199 2007 178Q2007 138 1988 116Q1945 63 1894 29Q1844 -5 1780 -5Q1692 -5 1649 75Q1607 155 1607 282Q1607 404 1638 560Q1670 716 1731 828Q1793 940 1878 940Q1926 940 1953 895Q1981 851 1981 768Q1981 649 1915 492Q1849 335 1736 181Q1743 140 1759 122Q1775 105 1801 105Q1842 105 1873 128Q1904 152 1952 209Q1964 223 1979 223ZM1856 841Q1833 841 1804 758Q1775 675 1753 552Q1731 429 1729 316Q1800 433 1842 550Q1884 668 1884 765Q1884 841 1856 841ZM2438 221Q2451 221 2458 208Q2466 196 2466 177Q2466 154 2459 141Q2452 128 2437 118L2245 -11Q2207 -218 2145 -337Q2084 -455 1989 -455Q1938 -455 1906 -424Q1874 -392 1874 -341Q1874 -294 1895 -245Q1917 -196 1975 -133Q2034 -69 2141 13L2144 36Q2151 73 2160 142Q2140 70 2104 32Q2068 -5 2028 -5Q1983 -5 1954 36Q1926 78 1926 140Q1926 215 1936 277Q1946 340 1969 410Q1979 440 1997 453Q2015 466 2054 466Q2076 466 2084 459Q2093 452 2093 438Q2093 430 2082 384Q2072 347 2066 317Q2058 276 2052 238Q2046 201 2046 177Q2046 139 2067 139Q2082 139 2104 169Q2127 199 2152 260Q2178 321 2202 410Q2210 440 2226 453Q2243 466 2276 466Q2299 466 2308 460Q2317 454 2317 440Q2317 415 2291 268L2265 107Q2342 165 2415 213Q2428 221 2438 221ZM2000 -358Q2025 -358 2056 -300Q2087 -242 2118 -107Q2041 -172 2006 -226Q1972 -279 1972 -319Q1972 -336 1978 -347Q1985 -358 2000 -358ZM2467 246Q2443 244 2428 260Q2414 276 2414 305Q2414 332 2427 345Q2441 358 2467 360L2672 380Q2697 382 2710 367Q2724 353 2724 325Q2724 271 2672 266L2467 246ZM3068 -5Q3010 -5 2937 5Q2897 10 2882 26Q2867 42 2869 78Q2876 177 2902 322Q2928 468 2965 603Q2972 628 2993 638Q3014 648 3048 648Q3109 648 3109 614Q3109 600 3103 582Q3077 502 3051 367Q3025 233 3014 111Q3044 108 3082 108Q3257 108 3343 214Q3430 320 3430 497Q3430 616 3362 681Q3294 746 3170 746Q3090 746 3011 721Q2933 696 2870 655Q2857 646 2842 646Q2825 646 2815 660Q2805 675 2805 696Q2805 720 2813 735Q2821 751 2840 764Q2909 811 3002 835Q3095 860 3181 860Q3303 860 3392 817Q3481 775 3529 693Q3577 611 3577 495Q3577 344 3517 231Q3457 119 3342 57Q3227 -5 3068 -5ZM4154 307Q4167 307 4174 294Q4181 281 4181 261Q4181 213 4152 204Q4092 183 4020 180Q4001 96 3945 45Q3889 -5 3818 -5Q3758 -5 3715 24Q3673 53 3651 101Q3629 149 3629 205Q3629 281 3658 340Q3687 400 3738 433Q3789 467 3851 467Q3927 467 3973 414Q4020 362 4028 285Q4075 288 4140 305Q4148 307 4154 307ZM3826 101Q3858 101 3881 127Q3905 153 3913 202Q3882 223 3865 257Q3849 291 3849 329Q3849 345 3852 361L3847 361Q3807 361 3780 322Q3754 284 3754 214Q3754 159 3775 130Q3797 101 3826 101ZM4281 -27Q4229 -27 4201 -3Q4174 21 4174 51Q4174 77 4193 96Q4212 115 4249 115Q4262 115 4279 112Q4297 110 4306 109Q4305 135 4294 158Q4284 181 4268 202Q4252 224 4238 240Q4207 181 4176 142Q4146 103 4110 68Q4092 50 4072 50Q4056 50 4046 61Q4036 73 4036 90Q4036 110 4050 127L4063 143Q4118 211 4146 255Q4163 284 4186 332Q4209 381 4231 433Q4250 477 4310 477Q4338 477 4349 472Q4360 467 4360 456Q4360 450 4356 437Q4352 424 4345 411Q4327 375 4327 350Q4327 335 4337 317Q4348 299 4370 272Q4402 230 4418 200Q4435 171 4435 136Q4435 126 4433 108Q4482 127 4548 209Q4560 223 4575 223Q4588 223 4595 211Q4603 199 4603 178Q4603 140 4584 116Q4534 54 4488 31Q4443 9 4376 7Q4336 -27 4281 -27ZM4968 223Q4981 223 4988 211Q4996 199 4996 178Q4996 138 4977 116Q4940 71 4872 33Q4805 -5 4728 -5Q4623 -5 4565 52Q4507 109 4507 208Q4507 277 4536 336Q4565 396 4616 431Q4668 466 4733 466Q4791 466 4826 431Q4861 397 4861 338Q4861 269 4811 219Q4762 170 4644 141Q4669 95 4739 95Q4784 95 4841 126Q4899 158 4941 209Q4953 223 4968 223ZM4716 368Q4679 368 4653 325Q4628 282 4628 221L4628 219Q4687 233 4721 261Q4755 289 4755 326Q4755 345 4744 356Q4734 368 4716 368ZM5364 -5Q5327 -5 5311 11Q5295 28 5295 74Q5295 105 5301 149Q5307 193 5322 282Q5324 294 5338 379Q5352 465 5363 559Q5373 639 5373 679Q5373 724 5340 724Q5315 724 5277 697Q5240 671 5197 613Q5183 594 5166 594Q5152 594 5141 607Q5131 621 5131 638Q5131 655 5137 670Q5143 686 5159 708Q5208 775 5268 811Q5328 848 5394 848Q5449 848 5476 814Q5504 780 5504 715Q5504 657 5488 547Q5538 695 5615 771Q5692 848 5796 848Q5878 848 5919 801Q5961 755 5961 677Q5961 633 5948 570L5887 284Q5877 234 5877 198Q5877 156 5896 135Q5916 114 5951 114Q5984 114 6015 136Q6047 158 6090 209Q6102 223 6117 223Q6130 223 6137 211Q6145 199 6145 178Q6145 139 6126 116Q6074 53 6023 24Q5972 -5 5916 -5Q5831 -5 5783 45Q5735 96 5735 181Q5735 214 5740 253Q5746 292 5759 352L5799 535Q5801 544 5806 567Q5811 590 5814 610Q5817 631 5817 651Q5817 683 5799 702Q5781 721 5748 721Q5688 721 5628 657Q5568 593 5517 450Q5466 308 5437 86Q5430 35 5416 15Q5403 -5 5364 -5ZM6510 223Q6523 223 6530 211Q6538 199 6538 178Q6538 138 6519 116Q6482 71 6414 33Q6347 -5 6270 -5Q6165 -5 6107 52Q6049 109 6049 208Q6049 277 6078 336Q6107 396 6158 431Q6210 466 6275 466Q6333 466 6368 431Q6403 397 6403 338Q6403 269 6353 219Q6304 170 6186 141Q6211 95 6281 95Q6326 95 6383 126Q6441 158 6483 209Q6495 223 6510 223ZM6258 368Q6221 368 6195 325Q6170 282 6170 221L6170 219Q6229 233 6263 261Q6297 289 6297 326Q6297 345 6286 356Q6276 368 6258 368ZM7203 304Q7206 305 7213 305Q7228 305 7236 295Q7244 285 7244 268Q7244 237 7232 219Q7220 202 7196 194Q7150 179 7098 179Q7054 179 7015 191Q6986 144 6951 94Q6911 37 6882 16Q6854 -5 6818 -5Q6778 -5 6757 26Q6737 57 6732 128L6727 201Q6696 117 6671 73Q6647 29 6622 12Q6598 -5 6565 -5Q6524 -5 6500 27Q6477 59 6471 128Q6459 268 6459 373L6459 408Q6460 441 6477 454Q6494 467 6528 467Q6554 467 6566 455Q6579 444 6579 417Q6579 302 6593 118Q6661 261 6718 416Q6729 446 6744 456Q6760 467 6782 467Q6809 467 6819 456Q6830 445 6830 417Q6830 302 6844 118Q6904 207 6934 260Q6919 289 6919 329Q6919 363 6934 395Q6949 427 6975 447Q7001 467 7034 467Q7063 467 7081 446Q7099 426 7099 387Q7099 342 7075 284Q7113 286 7176 299L7203 304ZM7343 -27Q7291 -27 7263 -3Q7236 21 7236 51Q7236 77 7255 96Q7274 115 7311 115Q7324 115 7341 112Q7359 110 7368 109Q7367 135 7356 158Q7346 181 7330 202Q7314 224 7300 240Q7269 181 7238 142Q7208 103 7172 68Q7154 50 7134 50Q7118 50 7108 61Q7098 73 7098 90Q7098 110 7112 127L7125 143Q7180 211 7208 255Q7225 284 7248 332Q7271 381 7293 433Q7312 477 7372 477Q7400 477 7411 472Q7422 467 7422 456Q7422 450 7418 437Q7414 424 7407 411Q7389 375 7389 350Q7389 335 7399 317Q7410 299 7432 272Q7464 230 7480 200Q7497 171 7497 136Q7497 126 7495 108Q7544 127 7610 209Q7622 223 7637 223Q7650 223 7657 211Q7665 199 7665 178Q7665 140 7646 116Q7596 54 7550 31Q7505 9 7438 7Q7398 -27 7343 -27Z" fill="#ffffff" style="background-color: #ffffff"></path></g></g></g></svg>